<?xml version="1.0" encoding="UTF-8"?>
<svg width="1216px" height="1216px" viewBox="0 0 1216 1216" version="1.1" xmlns="http://www.w3.org/2000/svg" xmlns:xlink="http://www.w3.org/1999/xlink">
    <!-- Generator: Sketch 43.2 (39069) - http://www.bohemiancoding.com/sketch -->
    <title>spiral</title>
    <desc>Created with Sketch.</desc>
    <defs></defs>
    <g id="Page-1" stroke="none" stroke-width="1" fill="none" fill-rule="evenodd">
        <path d="M446.235683,616.895191 C446.208878,625.723627 446.799601,634.731841 447.749403,644.09204 C451.735912,679.402401 465.535364,713.231387 485.736229,742.539625 C506.384298,771.630765 534.609288,795.48601 566.61635,811.295857 C599.083395,826.275623 634.476434,834.614743 671.00665,831.728616 C746.55865,828.114572 819.21021,790.773706 866.435002,731.723033 C890.251834,702.478648 907.437262,668.04945 916.253579,631.666369 C925.5171,595.219436 925.670427,557.942422 919.958988,518.175166 C908.638326,440.236963 867.418851,368.198718 808.860621,317.167904 C779.56234,291.626956 745.945341,271.360213 710.09232,257.51702 C674.085972,243.980317 635.984152,237.237507 597.869554,236.982097 L583.597343,236.675606 L568.609605,238.003735 L538.698015,240.55783 C519.187123,244.899791 499.280135,246.75151 480.523102,253.468779 C471.119031,256.597545 461.306087,258.296018 452.25978,262.3698 L424.852535,273.480112 C415.678455,277.017533 407.347674,282.508837 398.544135,286.786946 L385.485765,293.542527 C381.218156,295.930606 377.26998,298.918896 373.142921,301.536844 C306.598897,343.002573 253.918211,403.79003 220.773971,471.843886 L209.389423,497.80626 C205.287919,506.311395 203.384106,515.672153 200.177011,524.458239 C193.30284,541.953789 191.028486,560.726386 186.441445,578.668902 C185.138164,587.876413 184.384305,597.160548 183.196019,606.329748 L181.483865,620.070779 L181.368869,633.965054 L180.857778,661.58759 L183.438787,690.512714 C190.108522,767.352656 213.47815,840.527473 249.918925,904.533089 C286.027491,968.794114 336.127169,1022.96647 392.487709,1064.33003 C448.924912,1105.79576 511.891301,1134.26115 575.547663,1149.44524 C607.324734,1157.38848 639.472347,1161.28347 671.108868,1162.91809 C687.182674,1162.7393 702.362072,1163.9525 718.665869,1163.1735 C726.881654,1162.68822 735.071884,1162.20294 743.211005,1161.71767 C751.337349,1161.09191 759.374253,1159.94257 767.398378,1159.13803 C799.418218,1155.38351 830.530872,1149.59849 860.289135,1141.33599 C890.200725,1133.63539 918.719592,1123.40624 945.909624,1111.92559 C973.316869,1100.90467 998.666974,1086.84438 1023.17378,1073.07781 C1047.11838,1058.23851 1070.2708,1043.41199 1091.1233,1026.60605 C1133.56939,994.066882 1168.98799,957.466704 1198.65681,920.713279 C1258.135,846.861628 1292.32698,771.081634 1311.5951,707.420821 C1331.34876,643.568451 1335.92303,591.094573 1337.95461,555.707589 C1338.2996,546.819339 1338.59348,538.978268 1338.8618,532.209917 C1338.75958,525.416025 1338.68292,519.694852 1338.61903,515.097482 C1338.55514,505.915511 1338.51681,501.177665 1338.51681,501.177665 L1692,501.177665 C1692,501.177665 1691.65501,508.520687 1691.00337,522.759766 C1690.64561,529.87292 1690.1984,538.710088 1689.66176,549.207418 C1688.85679,559.691977 1687.54073,571.823927 1686.18634,585.539417 C1679.88715,640.158734 1667.51875,721.021376 1631.49962,817.387373 C1596.05548,913.421339 1536.83283,1025.31623 1441.5655,1130.23845 C1394.04683,1182.52077 1338.17183,1233.38557 1272.85442,1277.77573 C1240.59181,1300.50718 1205.41599,1320.67176 1168.96243,1340.08288 C1131.90835,1358.42128 1093.53821,1376.29994 1052.70205,1390.2453 C1012.10866,1404.65039 969.790342,1416.91005 925.93875,1425.60674 C882.240485,1434.87811 837.034502,1440.66313 791.061883,1443.33216 C779.56234,1443.86852 768.024465,1444.68583 756.448258,1444.90293 C744.859273,1444.9157 733.231957,1444.92847 721.566309,1444.95401 C698.107241,1444.6986 673.242672,1442.05511 648.953081,1440.40772 C600.18224,1435.0952 550.93864,1425.83661 502.729998,1410.85684 C406.184943,1381.62523 313.268632,1332.39505 232.746274,1265.40115 C152.24947,1198.56048 83.661082,1114.13488 36.1679677,1017.16867 C-11.7084647,920.547263 -39.1029325,812.138709 -42.0928138,702.593582 L-43,661.485426 L-39.9717869,618.870354 L-38.2085236,597.581974 L-34.6053333,576.446839 C-32.0754338,562.373777 -29.7883024,548.249632 -26.8111983,534.278734 C-18.8381816,506.745592 -12.5389872,478.68886 -1.03944384,452.305061 C4.49311427,439.062079 8.86294076,425.34659 15.5454532,412.627198 L35.1585633,374.303005 C91.2635579,274.246341 174.980234,189.718573 275.652348,134.728911 C281.91321,131.255342 287.995191,127.462512 294.422158,124.320975 L313.971382,115.368873 C327.13197,109.711553 339.8198,103.019824 353.402038,98.4352239 L394.059313,84.6558824 C407.526556,79.8669546 421.760435,77.6065807 435.585442,74.0819299 C463.209901,66.5728911 491.830987,64.5934676 519.979313,60.7495549 C534.174861,60.0088675 548.383186,59.7789989 562.553178,59.3958847 L583.827334,59 L605.804239,60.5196864 C664.298583,64.4274515 722.230727,78.5260549 775.511945,102.36853 C828.678167,126.491955 877.104022,159.835663 918.157392,200.113739 C1000.32802,280.491102 1052.97037,389.295542 1062.70665,501.088272 C1064.71268,514.944236 1064.04827,528.966216 1064.71268,542.847722 C1065.53043,556.53767 1064.32937,571.006617 1063.17941,585.322319 C1060.94339,613.91541 1054.89974,642.125387 1046.55618,669.352038 C1029.70296,723.856421 1000.73689,773.814516 963.158939,814.935442 C925.734314,856.196844 880.004463,888.965881 830.109222,910.880014 C780.239535,932.870771 726.217236,943.802296 673.25545,943.483035 C618.888164,944.300345 564.354774,928.796989 517.768846,903.2305 C471.323467,876.872242 432.352793,839.365359 405.022211,795.562633 C378.087725,751.530039 361.668932,701.712419 358.896265,651.856489 C357.644092,627.349949 358.525724,601.362034 364.083837,576.536232 C369.795276,551.812595 378.62437,528.059513 390.826664,506.375248 C403.310057,484.856999 418.540563,465.369256 435.943206,448.384525 C453.754721,431.795679 473.533935,417.850322 494.590877,406.701698 C515.992805,396.191598 538.404137,388.414379 561.313783,383.983024 C567.025223,382.871993 572.826104,382.348404 578.550321,381.556634 C584.287316,380.713783 590.02431,380.164653 595.774082,380.177423 L604.385962,379.960325 L608.666348,379.858161 L610.812929,379.81985 C612.295092,379.83262 610.519052,379.730456 614.671665,379.83262 L629.339971,380.994733 C654.15343,383.689303 676.654204,390.534277 697.1745,400.584641 C717.720351,410.737167 736.451829,424.031231 751.912327,440.16034 C782.833321,472.227 802.714754,513.603336 806.880144,555.758671 C807.710667,560.981795 807.940657,566.23046 808.004544,571.466354 L808.183426,579.307425 L808.234535,581.261308 C808.260089,580.661096 808.247312,584.27514 808.183426,584.492238 L807.915103,587.850872 L807.391235,594.555371 L807.110135,597.939547 L806.445717,602.230426 C805.410758,607.785582 804.759117,613.992033 803.161958,618.857584 C797.923277,639.430817 788.59587,658.573758 776.265804,674.971047 C766.396835,688.208117 754.588114,699.609371 741.534858,708.93686 C763.140971,681.035921 776,646.019654 776,608 C776,516.873016 702.126984,443 611,443 C519.873016,443 446,516.873016 446,608 C446,610.98423 446.079224,613.949956 446.235683,616.895191 Z" id="Combined-Shape" fill="#E8D9E2"></path>
    
	  <animateTransform attributeType="xml"
                    attributeName="transform"
                    type="rotate"
                    from="0 608 608"
                    to="360 608 608"
                    dur="4s"
					repeatCount="indefinite"/>
	</g>
</svg>